<svg width="20" height="23" viewBox="0 0 20 23" fill="none" xmlns="http://www.w3.org/2000/svg">
<path d="M18.2477 15.8281L15.0878 13.8281C14.7778 13.6281 14.3878 13.6181 14.0578 13.7881C13.7378 13.9581 13.5378 14.2981 13.5378 14.6581V22.0082C13.5378 22.5582 13.9878 22.9981 14.5478 22.9981H17.7078C18.2678 22.9981 18.7178 22.5582 18.7178 22.0082V16.6581C18.7178 16.3181 18.5478 16.0081 18.2578 15.8281H18.2477Z" fill="#776ABE"/>
<path d="M11.4878 12.2381L8.31775 10.2281C8.00775 10.0281 7.61778 10.0181 7.28778 10.1881C6.96778 10.3581 6.76776 10.6981 6.76776 11.0581V22.0081C6.76776 22.5581 7.21777 22.9981 7.77777 22.9981H10.9478C11.5078 22.9981 11.9578 22.5581 11.9578 22.0081V13.0681C11.9578 12.7281 11.7877 12.4181 11.4977 12.2381H11.4878Z" fill="#776ABE"/>
<path d="M4.72778 8.63815L1.5578 6.63815C1.2478 6.43815 0.857771 6.42814 0.527771 6.59814C0.207771 6.76814 0.00775146 7.10813 0.00775146 7.46813V22.0081C0.00775146 22.5581 0.457761 22.9981 1.01776 22.9981H4.18774C4.74774 22.9981 5.19775 22.5581 5.19775 22.0081V9.46813C5.19775 9.12813 5.02779 8.81815 4.73779 8.63815H4.72778Z" fill="#776ABE"/>
<path d="M0.507777 1.84814L15.2578 10.3981L14.3078 10.6281C13.7678 10.7581 13.4378 11.2981 13.5678 11.8281C13.6778 12.2781 14.0878 12.5882 14.5478 12.5882C14.6278 12.5882 14.7078 12.5882 14.7878 12.5582L18.2478 11.7181C18.7878 11.5881 19.1178 11.0481 18.9878 10.5181L18.1978 7.33815C18.0678 6.80815 17.5178 6.47814 16.9778 6.60814C16.4378 6.73814 16.1078 7.27815 16.2378 7.80815L16.4578 8.70815L16.4078 8.77815L1.51779 0.138153C1.03779 -0.141847 0.417782 0.0181437 0.137782 0.488144C-0.142218 0.958144 0.0177669 1.56814 0.497767 1.84814H0.507777Z" fill="#776ABE"/>
</svg>
