<?xml version="1.0" encoding="utf-8"?>
<!-- Generator: Adobe Illustrator 23.0.4, SVG Export Plug-In . SVG Version: 6.00 Build 0)  -->
<svg version="1.1" id="Шар_1" xmlns="http://www.w3.org/2000/svg" xmlns:xlink="http://www.w3.org/1999/xlink" x="0px" y="0px"
	 viewBox="0 0 51.5 51.5" style="enable-background:new 0 0 51.5 51.5;" xml:space="preserve">
<title>14-File-Check</title>
<g>
	<path stroke="#776ABE" d="M42.8,15.8h-2c-2.8,0-5-2.2-5-5v-8c0-0.6,0.4-1,1-1s1,0.4,1,1v8c0,1.7,1.3,3,3,3h2c0.6,0,1,0.4,1,1S43.3,15.8,42.8,15.8z"
		/>
	<path stroke="#776ABE" d="M44.8,49.8h-16c-0.6,0-1-0.4-1-1s0.4-1,1-1h16c1.7,0,3-1.3,3-3V15.2L36.4,3.8H10.8c-1.7,0-3,1.3-3,3v13c0,0.6-0.4,1-1,1
		s-1-0.4-1-1v-13c0-2.8,2.2-5,5-5h26c0.3,0,0.5,0.1,0.7,0.3l12,12c0.2,0.2,0.3,0.4,0.3,0.7v30C49.8,47.5,47.5,49.8,44.8,49.8z"/>
	<path stroke="#776ABE" d="M15.8,49.8c-7.7,0-14-6.3-14-14s6.3-14,14-14s14,6.3,14,14C29.8,43.5,23.5,49.8,15.8,49.8z M15.8,23.8c-6.6,0-12,5.4-12,12
		s5.4,12,12,12s12-5.4,12-12C27.8,29.1,22.4,23.8,15.8,23.8z"/>
	<path stroke="#776ABE" d="M12.8,42.8c-0.3,0-0.5-0.1-0.7-0.3l-3-3c-0.4-0.4-0.4-1,0-1.4s1-0.4,1.4,0c0,0,0,0,0,0l2.3,2.3l9.3-9.3
		c0.4-0.4,1-0.4,1.4,0c0.4,0.4,0.4,1,0,1.4l-10,10C13.3,42.7,13,42.8,12.8,42.8z"/>
</g>
</svg>
