<?xml version="1.0" encoding="utf-8"?>
<!-- Generator: Adobe Illustrator 23.0.4, SVG Export Plug-In . SVG Version: 6.00 Build 0)  -->
<svg version="1.1" id="Шар_1" xmlns:serif="http://www.serif.com/"
   xmlns="http://www.w3.org/2000/svg" xmlns:xlink="http://www.w3.org/1999/xlink" x="0px" y="0px" viewBox="0 0 800 800"
   style="enable-background:new 0 0 800 800;" xml:space="preserve">
<style type="text/css">
  .st0{fill:#FFFFFF;}
  .st1{fill:none;}
</style>
<path class="st0" d="M748.3,113.9v523.6h-94.8v-29.1h63.2V143h-632v465.4h252.8v29.1H53.1V113.9H748.3z M527.1,172.1H274.3v29.1
  h252.8V172.1z M463.9,259.4v-29.1H337.5v29.1H463.9z M242.7,404.8H116.3v29.1h126.4V404.8z M242.7,463H116.3v29.1h126.4V463z
   M116.3,550.3h63.2v-29.1h-63.2V550.3z M558.7,463c0,32.1-28.3,58.2-63.2,58.2s-63.2-26-63.2-58.2s28.3-58.2,63.2-58.2
  C530.4,404.9,558.7,430.9,558.7,463z M527.1,463c0-16.1-14.1-29.1-31.6-29.1s-31.6,13-31.6,29.1c0,16.1,14.1,29.1,31.6,29.1
  C512.9,492.1,527.1,479.1,527.1,463z M527.2,338.1c5.6,14.6,23.1,22.2,38.9,17c0.9-0.3,1.9-0.7,2.8-1c12.9-5.5,28.2-3.1,38.3,6
  c10.1,9.3,12.7,23.4,6.6,35.2c-7.2,14-0.7,30.8,14.5,37.4c0.9,0.4,1.9,0.8,2.8,1.1c17.5,5.8,26.6,23.5,20.4,39.6
  c-3.4,8.7-10.9,15.6-20.4,18.7c-15.9,5.2-24.2,21.2-18.5,35.8c0.3,0.9,0.7,1.8,1.2,2.6c8,15.2,1.2,33.4-15.3,40.8
  c-2.6,1.2-5.4,2-8.2,2.5v205l-94.8-73.8L400.7,779V574c-18-3.2-29.7-19.2-26.2-35.8c0.6-2.6,1.5-5.1,2.7-7.5
  c7.2-14,0.8-30.7-14.4-37.4c-0.9-0.4-1.9-0.8-2.9-1.1c-17.5-5.8-26.6-23.5-20.4-39.6c3.4-8.7,10.9-15.6,20.4-18.7
  c15.9-5.2,24.2-21.3,18.5-35.9c-0.3-0.9-0.7-1.8-1.2-2.6c-6.1-11.8-3.5-25.9,6.6-35.2c10.2-9.1,25.4-11.5,38.3-6
  c15.2,6.6,33.4,0.6,40.6-13.5c0.4-0.8,0.8-1.7,1.1-2.6c6.2-16.1,25.4-24.5,42.9-18.8C516.3,322.5,523.8,329.4,527.2,338.1
  L527.2,338.1z M558.7,716.3V569.7c-13.9-1.6-27.1,6-31.5,18.2c-6.2,16.1-25.5,24.5-43,18.7c-9.5-3.1-17-10-20.4-18.7
  c-4.5-12.2-17.7-19.8-31.5-18.2v146.6l63.2-49.2L558.7,716.3z M497.4,578.2c8.8-22.8,32.3-38,58.6-38c9.5,0.1,18.9,2,27.5,5.7
  l1.8-2.6c-14.7-28.5-1.6-62.6,29.4-76.1c1.9-0.8,3.9-1.6,5.9-2.3v-3.5c-32.3-10.6-49.2-43.3-37.7-73.1c0.7-1.8,1.5-3.6,2.4-5.3
  l-2.7-2.4c-31,13.5-68,1.4-82.7-27.1c-0.9-1.7-1.7-3.5-2.4-5.4h-3.8c-11.5,29.7-47,45.3-79.3,34.7c-2-0.6-3.9-1.4-5.8-2.2l-2.7,2.4
  c14.7,28.5,1.5,62.6-29.5,76.2c-1.9,0.8-3.8,1.6-5.8,2.2v3.5c32.3,10.6,49.2,43.2,37.7,73c-0.7,1.9-1.5,3.7-2.4,5.4l1.8,2.6
  c8.6-3.7,18-5.6,27.5-5.7c26.3,0,49.7,15.2,58.6,38l1.9,1.2L497.4,578.2z"/>
<path class="st1" d="M21.5,84.9h758.4V783H21.5V84.9z"/>
</svg>
