<?xml version="1.0" encoding="utf-8"?>
<!-- Generator: Adobe Illustrator 23.0.4, SVG Export Plug-In . SVG Version: 6.00 Build 0)  -->
<svg version="1.1" id="Шар_1" xmlns:serif="http://www.serif.com/"
   xmlns="http://www.w3.org/2000/svg" xmlns:xlink="http://www.w3.org/1999/xlink" x="0px" y="0px" viewBox="0 0 800 800"
   style="enable-background:new 0 0 800 800;" xml:space="preserve">
<style type="text/css">
  .st0{fill-rule:evenodd;clip-rule:evenodd;fill:#FFFFFF;}
</style>
<path class="st0" d="M105.9,141c-35.2,36.2-55,85.4-55,136.6c0,51.2,19.8,100.4,55,136.6l240.6,247.5c14.2,14.6,33.5,22.7,53.6,22.7
  c20.1,0,39.4-8.1,53.6-22.7C497.2,616.9,694.1,414,694.1,414c35.2-36.2,55-85.3,55-136.6s-19.8-100.4-55-136.6l0,0
  c-35.5-36.5-83.6-56.9-133.8-56.9c-50.2,0-98.3,20.4-133.8,56.9l-26.6,27.4L373.4,141c-35.5-36.5-83.6-56.9-133.8-56.9
  S141.3,104.5,105.9,141 M141.7,175.9c26-26.7,61.2-41.8,98-41.8s72,15.1,97.9,41.8l44.4,45.6c4.7,4.8,11.2,7.6,17.9,7.6
  c6.8,0,13.2-2.8,17.9-7.6l44.5-45.8c26-26.7,61.2-41.8,97.9-41.8s72,15.1,98,41.8c0.1,0.1,0.1,0.2,0.2,0.3
  c26,26.7,40.6,63.3,40.6,101.5c0,38.1-14.7,74.8-40.9,101.7c0,0-196.9,202.9-240.4,247.7c-4.7,4.8-11.1,7.6-17.7,7.6
  c-6.7,0-13-2.8-17.7-7.6L141.7,379.4c-26.2-27-40.9-63.6-40.9-101.8S115.5,202.9,141.7,175.9"/>
<path class="st0" d="M375,359.4H325c-13.8,0-25,11.2-25,25s11.2,25,25,25H375v49.9c0,13.8,11.2,25,25,25c13.8,0,25-11.2,25-25v-49.9
  h49.9c13.8,0,25-11.2,25-25s-11.2-25-25-25H425v-49.9c0-13.8-11.2-25-25-25c-13.8,0-25,11.2-25,25V359.4L375,359.4z"/>
</svg>
