<?xml version="1.0" encoding="utf-8"?>
<!-- Generator: Adobe Illustrator 23.0.4, SVG Export Plug-In . SVG Version: 6.00 Build 0)  -->
<svg version="1.1" id="Шар_1" xmlns:serif="http://www.serif.com/"
   xmlns="http://www.w3.org/2000/svg" xmlns:xlink="http://www.w3.org/1999/xlink" x="0px" y="0px" viewBox="0 0 800 800"
   style="enable-background:new 0 0 800 800;" xml:space="preserve">
<style type="text/css">
  .st0{fill-rule:evenodd;clip-rule:evenodd;fill:#1CB079;}
</style>
<path class="st0" d="M133.2,620V337.6h42.6V620c0,12,9.5,21.7,21.3,21.7h383.7c11.8,0,21.3-9.7,21.3-21.7V337.6h42.6V620
  c0,36-28.6,65.2-64,65.2H197.1C161.8,685.2,133.2,656,133.2,620z M602.1,142.1v152.1l-85.3-86.9v-65.2c0-12,9.5-21.7,21.3-21.7h42.6
  C592.6,120.4,602.1,130.1,602.1,142.1z"/>
<path class="st0" d="M358.8,98.7c16.6-17,43.6-17,60.3,0l283.4,288.7c8.3,8.5,8.3,22.3,0,30.8s-21.9,8.5-30.2,0L389,129.4
  L105.6,418.2c-8.3,8.5-21.9,8.5-30.2,0s-8.3-22.3,0-30.8L358.8,98.7z"/>
</svg>
