<?xml version="1.0" encoding="utf-8"?>
<!-- Generator: Adobe Illustrator 23.0.4, SVG Export Plug-In . SVG Version: 6.00 Build 0)  -->
<svg version="1.1" id="Шар_1" xmlns:serif="http://www.serif.com/"
   xmlns="http://www.w3.org/2000/svg" xmlns:xlink="http://www.w3.org/1999/xlink" x="0px" y="0px" viewBox="0 0 800 800"
   style="enable-background:new 0 0 800 800;" xml:space="preserve">
<style type="text/css">
  .st0{fill:#FFFFFF;}
  .st1{fill-rule:evenodd;clip-rule:evenodd;fill:#FFFFFF;}
</style>
<g>
  <path class="st0" d="M575.2,500.2c-20.4,0.2-35.3-0.6-47.5,6.3c-6.3,3.7-11.1,9.5-13.5,16.4c-2.7,7.2-3.6,15.7-3.6,26.5v85.4
    c0,10.8,1,19.3,3.6,26.6c2.5,6.9,7.3,12.7,13.6,16.3c12.1,6.8,27.1,6.2,47.4,6.4h97.1c20.4-0.2,35.2,0.5,47.4-6.4
    c6.3-3.6,11.1-9.4,13.6-16.3c2.6-7.2,3.6-15.8,3.6-26.6v-85.4c0-10.8-1-19.3-3.6-26.5c-2.5-6.9-7.3-12.8-13.6-16.4
    c-12.2-6.9-27-6.1-47.4-6.3h-0.1L575.2,500.2z M348.9,86.6c-20.4,0.2-35.3-0.6-47.5,6.3c-6.3,3.7-11.1,9.5-13.5,16.4
    c-2.7,7.2-3.6,15.7-3.6,26.5v85.4c0,10.8,1,19.3,3.6,26.6c2.5,6.9,7.3,12.7,13.6,16.3c12.1,6.8,27.1,6.2,47.4,6.4H446
    c20.4-0.2,35.2,0.5,47.4-6.4c6.3-3.6,11.1-9.4,13.6-16.3c2.6-7.2,3.6-15.8,3.6-26.6v-85.4c0-10.8-1-19.3-3.6-26.5
    c-2.5-6.9-7.3-12.8-13.6-16.4c-12.2-6.9-27-6.1-47.4-6.3h-0.1H348.9z M122.6,500.2c-20.4,0.2-35.3-0.6-47.5,6.3
    c-6.3,3.7-11.1,9.5-13.5,16.4c-2.7,7.2-3.6,15.7-3.6,26.5v85.4c0,10.8,1,19.3,3.6,26.6c2.5,6.9,7.3,12.7,13.6,16.3
    c12.1,6.8,27.1,6.2,47.4,6.4h97.1c20.4-0.2,35.2,0.5,47.4-6.4c6.3-3.6,11.1-9.4,13.6-16.3c2.6-7.2,3.6-15.8,3.6-26.6v-85.4
    c0-10.8-1-19.3-3.6-26.5c-2.5-6.9-7.3-12.8-13.6-16.4c-12.2-6.9-27-6.1-47.4-6.3h-0.1L122.6,500.2z"/>
  <path class="st1" d="M216.4,362.3c-30.2,0-51.5,18.7-59.8,35.7c-8.4,17-8.1,33.2-8.1,33.2v91.9h45.3v-91.9c0,0,0.3-6.8,3.3-12.7
    c3-6,4.3-10.2,19.4-10.2h362.1c15.1,0,16.4,4.2,19.4,10.2c2.9,6,3.3,12.7,3.3,12.7v91.9h45.3v-91.9c0,0,0.3-16.2-8.1-33.2
    c-11.9-22.2-34.9-36-59.8-35.7H216.4z"/>
  <path class="st1" d="M375.1,247.3l-0.3,137.9l45.3,0.2l0.3-137.9L375.1,247.3z"/>
</g>
</svg>
