<?xml version="1.0" encoding="utf-8"?>
<!-- Generator: Adobe Illustrator 23.0.4, SVG Export Plug-In . SVG Version: 6.00 Build 0)  -->
<svg version="1.1" id="Шар_1" xmlns:serif="http://www.serif.com/"
   xmlns="http://www.w3.org/2000/svg" xmlns:xlink="http://www.w3.org/1999/xlink" x="0px" y="0px" viewBox="0 0 800 800"
   style="enable-background:new 0 0 800 800;" xml:space="preserve">
<style type="text/css">
  .st0{fill:#FFFFFF;}
</style>
<path class="st0" d="M562.5,573.4l-124.3-65.3c46.2-34.5,58.8-102.2,58.8-140.1v-79c0-52.3-73.3-110.6-147-110.6
  c-73.6,0-148.9,58.3-148.9,110.6v79c0,34.5,15.4,104.4,62.1,139.8l-127.5,65.6c0,0-33.3,14.1-33.3,31.6v47.4
  c0,17.5,14.9,31.6,33.3,31.6h426.9c18.4,0,33.3-14.2,33.3-31.6v-47.4C595.8,586.3,562.5,573.3,562.5,573.4L562.5,573.4z
   M556.4,646.6H141.8v-33.5c2.8-2,6.8-4.2,9.9-5.6c0.9-0.4,1.9-0.8,2.7-1.3l127.5-65.6c11.6-6,19.3-17.1,20.5-29.6
  c1.2-12.5-4.3-24.7-14.6-32.5c-33.1-25.2-47.3-80.9-47.3-110.6v-79c0-26.9,53.5-73.2,109.4-73.2c57,0,107.5,45.7,107.5,73.2v79
  c0,29.3-9.6,85.3-43.7,110.7c-10.4,7.8-16.1,20-14.9,32.5c1.1,12.5,8.8,23.7,20.4,29.7l124.3,65.3c1.1,0.6,2.5,1.2,3.6,1.7
  c2.9,1.2,6.5,3.1,9.1,4.8V646.6L556.4,646.6z M700.7,480.2l-126.2-65.3c46.2-34.5,60.6-102.2,60.6-140.1v-79
  c0-52.3-75.2-111.2-148.9-111.2c-47.9,0-96.8,24.7-125.3,56.3c16.2,1,34.2,1,49.6,5.7c20.8-15.4,47.1-24.5,75.7-24.5
  c57,0,109.4,46.2,109.4,73.8v79c0,29.3-11.5,85.3-45.5,110.7c-10.4,7.8-16.1,20-14.9,32.5c1.1,12.5,8.8,23.7,20.4,29.7L681.8,513
  c1.1,0.6,2.5,1.2,3.6,1.7c2.9,1.2,6.5,3.1,9.1,4.8v33.3h-79.7c12,8.6,15.7,20.9,20.4,37.4h65.5c18.4,0,33.3-14.2,33.3-31.6v-46.8
  C734,493.2,700.7,480.2,700.7,480.2L700.7,480.2z"/>
</svg>
