<?xml version="1.0" encoding="utf-8"?>
<!-- Generator: Adobe Illustrator 23.0.4, SVG Export Plug-In . SVG Version: 6.00 Build 0)  -->
<svg version="1.1" id="Шар_1" xmlns="http://www.w3.org/2000/svg" xmlns:xlink="http://www.w3.org/1999/xlink" x="0px" y="0px"
	 viewBox="0 0 24 24" style="enable-background:new 0 0 24 24;" xml:space="preserve">
<style type="text/css">
	.st0{fill-rule:evenodd;clip-rule:evenodd;stroke:#FFFFFF;}
</style>
<path class="st0" d="M1.5,6C1.5,4,3.1,2.5,5,2.5h2.5c1.1,0,2.2,0.5,2.8,1.4l1.2,1.6c0.5,0.6,1.2,1,2,1H19c1.9,0,3.5,1.6,3.5,3.5V11
	c0,0.3-0.2,0.5-0.5,0.5s-0.5-0.2-0.5-0.5v-0.9c0-1.4-1.1-2.5-2.5-2.5h-5.5c-1.1,0-2.2-0.5-2.8-1.4L9.5,4.5c-0.5-0.6-1.2-1-2-1H5
	C3.6,3.5,2.5,4.6,2.5,6v10c0,0.3-0.2,0.5-0.5,0.5S1.5,16.2,1.5,16V6z M22,13.5c0.3,0,0.5,0.2,0.5,0.5v2.2c0,1.9-1.6,3.5-3.5,3.5h-5
	c-0.3,0-0.5-0.2-0.5-0.5c0-0.3,0.2-0.5,0.5-0.5h5c1.4,0,2.5-1.1,2.5-2.5V14C21.5,13.7,21.7,13.5,22,13.5z"/>
<path class="st0" d="M7,12.2c1.5,0,2.7,1.1,2.7,2.4c0,1.3-1.2,2.4-2.7,2.4S4.3,16,4.3,14.7C4.3,13.3,5.5,12.2,7,12.2z M10.3,14.6
	c0-1.8-1.5-3.1-3.3-3.1s-3.3,1.4-3.3,3.1s1.5,3.1,3.3,3.1S10.3,16.4,10.3,14.6z"/>
<path class="st0" d="M7,17.8c1.9,0,3.6,1.2,4.3,2.8c0.2,0.3,0.1,0.7-0.1,0.9c-0.2,0.3-0.6,0.5-1,0.5H3.9c-0.4,0-0.8-0.2-1-0.5
	c-0.2-0.3-0.3-0.6-0.1-0.9C3.4,19,5.1,17.8,7,17.8z M12,20.2c-0.9-1.8-2.8-3.1-5-3.1c-2.2,0-4.1,1.2-5,3.1c-0.3,0.7-0.2,1.4,0.3,1.9
	c0.4,0.5,1.1,0.8,1.8,0.8h6c0.7,0,1.3-0.3,1.8-0.8C12.1,21.6,12.3,20.9,12,20.2z"/>
</svg>
