<svg xmlns="http://www.w3.org/2000/svg" xmlns:xlink="http://www.w3.org/1999/xlink" viewBox="0 0 210.83 24.81"><defs><style>.cls-1,.cls-7{fill:#fff;}.cls-2{fill:url(#Градієнт_без_назви_2);}.cls-3{fill:#4ea082;}.cls-4{fill:#d4aa7d;}.cls-5{fill:#f49097;}.cls-6{fill:url(#Градієнт_без_назви_2-2);}.cls-7{fill-opacity:0.39;}</style><linearGradient id="Градієнт_без_назви_2" x1="51.23" y1="111.93" x2="69.22" y2="111.93" gradientTransform="matrix(0, -1, -1, 0, 113.75, 73.23)" gradientUnits="userSpaceOnUse"><stop offset="0" stop-color="#6656b6"/><stop offset="1" stop-color="#fff" stop-opacity="0"/></linearGradient><linearGradient id="Градієнт_без_назви_2-2" x1="74.58" y1="111.93" x2="96.58" y2="111.93" gradientTransform="matrix(0, -1, -1, 0, 137.1, 96.58)" xlink:href="#Градієнт_без_назви_2"/></defs><title>Ресурс 11</title><g id="Шар_2" data-name="Шар 2"><g id="Шар_1-2" data-name="Шар 1"><path class="cls-1" d="M37.49,20.6a2.3,2.3,0,0,1-1.7-.6,2.37,2.37,0,0,1-.6-1.72V4.85a2.28,2.28,0,0,1,.6-1.72,2.3,2.3,0,0,1,1.7-.6,2.24,2.24,0,0,1,1.7.6,2.28,2.28,0,0,1,.6,1.72V10.3h.05l6.07-6.7a3.89,3.89,0,0,1,1-.77,2.54,2.54,0,0,1,1.23-.3,1.82,1.82,0,0,1,1.5.55,1.59,1.59,0,0,1,.42,1.25,1.94,1.94,0,0,1-.57,1.3l-6.05,6.42V10.18l6.35,7.17a2.28,2.28,0,0,1,.65,1.5,1.65,1.65,0,0,1-.53,1.25,2,2,0,0,1-1.5.5A2.55,2.55,0,0,1,47,20.28a6.67,6.67,0,0,1-1.1-1l-6.1-6.82h-.05v5.85A2.4,2.4,0,0,1,39.21,20,2.26,2.26,0,0,1,37.49,20.6Zm23.34,0a9.5,9.5,0,0,1-4.7-1.12A8.08,8.08,0,0,1,53,16.33a9.89,9.89,0,0,1-1.1-4.78,10.75,10.75,0,0,1,.62-3.72A8.4,8.4,0,0,1,54.33,5a8,8,0,0,1,2.85-1.82,9.92,9.92,0,0,1,3.65-.65A9.36,9.36,0,0,1,65.5,3.6a7.9,7.9,0,0,1,3.15,3.18,9.67,9.67,0,0,1,1.13,4.77,10.32,10.32,0,0,1-.65,3.73,8.23,8.23,0,0,1-1.83,2.9A7.91,7.91,0,0,1,64.48,20,10.17,10.17,0,0,1,60.83,20.65Zm0-3.85a3.91,3.91,0,0,0,2.25-.62,4,4,0,0,0,1.42-1.8,7.09,7.09,0,0,0,.5-2.83A6,6,0,0,0,63.9,7.7a3.73,3.73,0,0,0-3.07-1.37A4,4,0,0,0,58.58,7a3.89,3.89,0,0,0-1.43,1.78,7.15,7.15,0,0,0-.5,2.82,6.15,6.15,0,0,0,1.1,3.88A3.72,3.72,0,0,0,60.83,16.8Zm13.81,3.8a2.16,2.16,0,0,1-1.6-.55,2.2,2.2,0,0,1-.55-1.62V4.8A2.35,2.35,0,0,1,73,3.13a1.88,1.88,0,0,1,1.45-.6,2.22,2.22,0,0,1,1.25.3,4.45,4.45,0,0,1,1,1l7.93,9.9H84v-9a2.23,2.23,0,0,1,.52-1.6,2.16,2.16,0,0,1,1.6-.55,2.08,2.08,0,0,1,1.58.55,2.16,2.16,0,0,1,.55,1.6V18.53a2.24,2.24,0,0,1-.5,1.52,1.71,1.71,0,0,1-1.35.55A2.6,2.6,0,0,1,85,20.3a5,5,0,0,1-1-1L76.07,9.38h.7v9a2.16,2.16,0,0,1-.55,1.62A2.08,2.08,0,0,1,74.64,20.6Zm23.25,0a2.3,2.3,0,0,1-1.7-.6,2.37,2.37,0,0,1-.6-1.72V6.5H91.66A2,2,0,0,1,90.24,6a1.93,1.93,0,0,1-.48-1.4,1.89,1.89,0,0,1,.48-1.4,2,2,0,0,1,1.42-.48h12.45a1.87,1.87,0,0,1,1.4.48,1.82,1.82,0,0,1,.5,1.4,1.86,1.86,0,0,1-.5,1.4,1.87,1.87,0,0,1-1.4.47h-3.92V18.28A2.4,2.4,0,0,1,99.61,20,2.26,2.26,0,0,1,97.89,20.6Zm11.94,0a2.29,2.29,0,0,1-1.7-.6,2.37,2.37,0,0,1-.6-1.72V5.08a2.35,2.35,0,0,1,.6-1.73,2.37,2.37,0,0,1,1.72-.6H116a6.69,6.69,0,0,1,4.63,1.48,5.12,5.12,0,0,1,1.65,4,5.54,5.54,0,0,1-.75,2.92,4.82,4.82,0,0,1-2.13,1.9,7.81,7.81,0,0,1-3.4.65l.2-.45h1.2a3.46,3.46,0,0,1,1.9.53,3.83,3.83,0,0,1,1.38,1.55l1.25,2.25a2.74,2.74,0,0,1,.37,1.42,1.49,1.49,0,0,1-.55,1.13,2.22,2.22,0,0,1-1.47.42,2.88,2.88,0,0,1-1.6-.4A3.48,3.48,0,0,1,117.6,19l-2.27-4.17a1.57,1.57,0,0,0-.78-.75,2.32,2.32,0,0,0-1-.23h-1.37v4.48a2.4,2.4,0,0,1-.58,1.72A2.28,2.28,0,0,1,109.83,20.6Zm2.3-10h3.05a3.31,3.31,0,0,0,2-.52,1.89,1.89,0,0,0,.7-1.63,1.83,1.83,0,0,0-.7-1.57,3.18,3.18,0,0,0-2-.55h-3.05Zm21.43,10.1a9.5,9.5,0,0,1-4.7-1.12,8.08,8.08,0,0,1-3.15-3.2,9.89,9.89,0,0,1-1.1-4.78,10.75,10.75,0,0,1,.62-3.72A8.4,8.4,0,0,1,127.06,5a8,8,0,0,1,2.85-1.82,9.92,9.92,0,0,1,3.65-.65,9.36,9.36,0,0,1,4.67,1.12,7.9,7.9,0,0,1,3.15,3.18,9.67,9.67,0,0,1,1.13,4.77,10.32,10.32,0,0,1-.65,3.73,8.23,8.23,0,0,1-1.83,2.9A7.91,7.91,0,0,1,137.21,20,10.17,10.17,0,0,1,133.56,20.65Zm0-3.85a3.91,3.91,0,0,0,2.25-.62,4,4,0,0,0,1.42-1.8,7.27,7.27,0,0,0,.5-2.83,6,6,0,0,0-1.1-3.85,3.73,3.73,0,0,0-3.07-1.37,4,4,0,0,0-2.25.62,3.89,3.89,0,0,0-1.43,1.78,7.15,7.15,0,0,0-.5,2.82,6.15,6.15,0,0,0,1.1,3.88A3.72,3.72,0,0,0,133.56,16.8Zm14,3.58a2.4,2.4,0,0,1-1.73-.6,2.4,2.4,0,0,1-.6-1.73v-13a2.32,2.32,0,0,1,.6-1.72,2.3,2.3,0,0,1,1.7-.6,2.24,2.24,0,0,1,1.7.6,2.32,2.32,0,0,1,.6,1.72v11.5h6.1a2,2,0,0,1,1.45.5,1.81,1.81,0,0,1,.53,1.4,1.88,1.88,0,0,1-.53,1.43,2,2,0,0,1-1.45.5Zm14.62,0a2.37,2.37,0,0,1-1.72-.6,2.4,2.4,0,0,1-.6-1.73v-13a2.32,2.32,0,0,1,.6-1.72,2.29,2.29,0,0,1,1.7-.6,2.26,2.26,0,0,1,1.7.6,2.32,2.32,0,0,1,.6,1.72v11.5h6.1a2,2,0,0,1,1.45.5,1.8,1.8,0,0,1,.52,1.4,1.87,1.87,0,0,1-.52,1.43,2,2,0,0,1-1.45.5Zm14.44.15a2.29,2.29,0,0,1-2.45-2.45,2.36,2.36,0,0,1,.65-1.73,2.43,2.43,0,0,1,1.8-.67,2.27,2.27,0,0,1,2.45,2.4,2.42,2.42,0,0,1-.65,1.77A2.31,2.31,0,0,1,176.61,20.53Zm11.81.12a15.49,15.49,0,0,1-2.1-.15,12,12,0,0,1-2-.4,10.16,10.16,0,0,1-1.75-.65,2,2,0,0,1-1-.85,1.91,1.91,0,0,1-.2-1.15,2.12,2.12,0,0,1,.42-1.05,1.66,1.66,0,0,1,.93-.62,1.8,1.8,0,0,1,1.3.15,9.69,9.69,0,0,0,2.15.7,10.83,10.83,0,0,0,2.25.25,4.41,4.41,0,0,0,2.3-.43,1.29,1.29,0,0,0,.67-1.1,1.1,1.1,0,0,0-.47-.92,4.34,4.34,0,0,0-1.63-.6l-2.92-.63a6.6,6.6,0,0,1-3.58-1.75,4.51,4.51,0,0,1-1.17-3.22,5.17,5.17,0,0,1,.52-2.35,5.4,5.4,0,0,1,1.53-1.83A7.36,7.36,0,0,1,186,2.9a10.36,10.36,0,0,1,3-.42,11.84,11.84,0,0,1,2.62.3,7.53,7.53,0,0,1,2.33.85,1.76,1.76,0,0,1,.82.82,2,2,0,0,1,.2,1.1,1.68,1.68,0,0,1-.4,1,1.57,1.57,0,0,1-.9.57,2.12,2.12,0,0,1-1.32-.2,7.09,7.09,0,0,0-1.65-.47A9,9,0,0,0,189,6.25a4.88,4.88,0,0,0-1.58.23,2.12,2.12,0,0,0-1,.6,1.45,1.45,0,0,0-.32.92,1.17,1.17,0,0,0,.42.9,4,4,0,0,0,1.63.6l2.9.63a7.17,7.17,0,0,1,3.62,1.72,4.24,4.24,0,0,1,1.2,3.13,5,5,0,0,1-2,4.15,7.32,7.32,0,0,1-2.35,1.12A11,11,0,0,1,188.42,20.65Zm12.13-.27a2.51,2.51,0,0,1-1.8-.6,2.47,2.47,0,0,1-.6-1.78V5.13a2.37,2.37,0,0,1,.6-1.75,2.44,2.44,0,0,1,1.8-.63H209a1.83,1.83,0,0,1,1.35.45,1.77,1.77,0,0,1,.45,1.3,1.87,1.87,0,0,1-.45,1.35A1.83,1.83,0,0,1,209,6.3h-6.48V9.65h5.93a1.79,1.79,0,0,1,1.32.45,1.75,1.75,0,0,1,.48,1.33,1.72,1.72,0,0,1-.48,1.32,1.79,1.79,0,0,1-1.32.45h-5.93v3.63H209a1.8,1.8,0,0,1,1.35.47,1.77,1.77,0,0,1,.45,1.3,1.8,1.8,0,0,1-.45,1.33,1.83,1.83,0,0,1-1.35.45Z"/><rect class="cls-2" y="4.17" width="3.65" height="18.08"/><rect class="cls-3" x="5.84" width="3.65" height="22.26"/><rect class="cls-4" x="10.68" y="8.35" width="3.65" height="13.91"/><rect class="cls-5" x="17.51" y="4.17" width="3.65" height="18.08"/><rect class="cls-6" x="23.35" width="3.65" height="22.26"/><rect class="cls-7" y="23.35" width="27" height="1.46"/></g></g></svg>