<?xml version="1.0" encoding="UTF-8"?>
<svg xmlns="http://www.w3.org/2000/svg" xmlns:xlink="http://www.w3.org/1999/xlink" viewBox="0 0 214.51 24.81">
  <defs>
    <style>.cls-1{fill:#fff;}.cls-2{fill:url(#Градієнт_без_назви_4);}.cls-3{fill:#4ea082;}.cls-4{fill:#d4aa7d;}.cls-5{fill:#f49097;}.cls-6{fill:url(#Градієнт_без_назви_2);}.cls-7{fill:url(#Градієнт_без_назви_3);}</style>
    <linearGradient id="Градієнт_без_назви_4" x1="1.82" y1="5.13" x2="1.82" y2="23.13" gradientTransform="matrix(1, 0, 0, -1, 0, 27.13)" gradientUnits="userSpaceOnUse">
      <stop offset="0" stop-color="#5140ae" stop-opacity="0.6"></stop>
      <stop offset="1" stop-color="#5140ae" stop-opacity="0"></stop>
    </linearGradient>
    <linearGradient id="Градієнт_без_назви_2" x1="-757.16" y1="-379.65" x2="-735.16" y2="-379.65" gradientTransform="matrix(0, -1, -1, 0, -354.47, -735.16)" gradientUnits="userSpaceOnUse">
      <stop offset="0" stop-color="#5140ae" stop-opacity="0.9"></stop>
      <stop offset="1" stop-color="#5140ae" stop-opacity="0"></stop>
    </linearGradient>
    <linearGradient id="Градієнт_без_назви_3" y1="3.05" x2="27" y2="3.05" gradientTransform="matrix(1, 0, 0, -1, 0, 27.13)" gradientUnits="userSpaceOnUse">
      <stop offset="0" stop-color="#5140ae" stop-opacity="0.5"></stop>
      <stop offset="1" stop-color="#5140ae" stop-opacity="0.2"></stop>
    </linearGradient>
  </defs>
  <title>Ресурс 11</title>
  <g id="Шар_2" data-name="Шар 2">
    <g id="Шар_1-2" data-name="Шар 1">
      <path class="cls-1" d="M41.17,21.19a2.29,2.29,0,0,1-1.7-.6,2.37,2.37,0,0,1-.6-1.72V5.44a2.28,2.28,0,0,1,.6-1.72,2.29,2.29,0,0,1,1.7-.6,2.26,2.26,0,0,1,1.7.6,2.28,2.28,0,0,1,.6,1.72v5.45h.05l6.07-6.7a3.89,3.89,0,0,1,1-.77,2.54,2.54,0,0,1,1.23-.3,1.82,1.82,0,0,1,1.5.55,1.62,1.62,0,0,1,.42,1.25,2,2,0,0,1-.57,1.3l-6.05,6.42V10.77l6.35,7.17a2.28,2.28,0,0,1,.65,1.5,1.65,1.65,0,0,1-.53,1.25,2,2,0,0,1-1.5.5,2.55,2.55,0,0,1-1.37-.32,6.29,6.29,0,0,1-1.1-1L43.52,13h-.05v5.85a2.4,2.4,0,0,1-.58,1.72A2.28,2.28,0,0,1,41.17,21.19Zm23.34,0a9.5,9.5,0,0,1-4.7-1.12,8.08,8.08,0,0,1-3.15-3.2,9.89,9.89,0,0,1-1.1-4.78,10.52,10.52,0,0,1,.62-3.72A8.25,8.25,0,0,1,58,5.54a8,8,0,0,1,2.85-1.82,9.92,9.92,0,0,1,3.65-.65,9.36,9.36,0,0,1,4.67,1.12,7.9,7.9,0,0,1,3.15,3.18,9.67,9.67,0,0,1,1.13,4.77,10.32,10.32,0,0,1-.65,3.73A8.23,8.23,0,0,1,71,18.77a7.91,7.91,0,0,1-2.82,1.85A10.17,10.17,0,0,1,64.51,21.24Zm0-3.85a3.91,3.91,0,0,0,2.25-.62A4,4,0,0,0,68.18,15a7.27,7.27,0,0,0,.5-2.83,6,6,0,0,0-1.1-3.85,3.73,3.73,0,0,0-3.07-1.37,4,4,0,0,0-2.25.62,3.83,3.83,0,0,0-1.43,1.78,7.15,7.15,0,0,0-.5,2.82A6.15,6.15,0,0,0,61.43,16,3.7,3.7,0,0,0,64.51,17.39Zm13.81,3.8a2.16,2.16,0,0,1-1.6-.55A2.2,2.2,0,0,1,76.17,19V5.39a2.35,2.35,0,0,1,.55-1.67,1.88,1.88,0,0,1,1.45-.6,2.22,2.22,0,0,1,1.25.3,4.45,4.45,0,0,1,1,1l7.93,9.9h-.7v-9a2.23,2.23,0,0,1,.52-1.6,2.16,2.16,0,0,1,1.6-.55,2.08,2.08,0,0,1,1.58.55,2.2,2.2,0,0,1,.55,1.6V19.12a2.24,2.24,0,0,1-.5,1.52,1.74,1.74,0,0,1-1.35.55,2.6,2.6,0,0,1-1.35-.3,5,5,0,0,1-1-1L79.75,10h.7v9a2.2,2.2,0,0,1-.55,1.62A2.08,2.08,0,0,1,78.32,21.19Zm23.25,0a2.29,2.29,0,0,1-1.7-.6,2.37,2.37,0,0,1-.6-1.72V7.09H95.34a2,2,0,0,1-1.42-.47,1.93,1.93,0,0,1-.48-1.4,1.89,1.89,0,0,1,.48-1.4,2,2,0,0,1,1.42-.48h12.45a1.87,1.87,0,0,1,1.4.48,1.82,1.82,0,0,1,.5,1.4,1.86,1.86,0,0,1-.5,1.4,1.87,1.87,0,0,1-1.4.47h-3.92V18.87a2.4,2.4,0,0,1-.58,1.72A2.28,2.28,0,0,1,101.57,21.19Zm11.94,0a2.29,2.29,0,0,1-1.7-.6,2.37,2.37,0,0,1-.6-1.72V5.67a2.35,2.35,0,0,1,.6-1.73,2.37,2.37,0,0,1,1.72-.6h6.15a6.69,6.69,0,0,1,4.63,1.48,5.12,5.12,0,0,1,1.65,4,5.54,5.54,0,0,1-.75,2.92,4.82,4.82,0,0,1-2.13,1.9,7.81,7.81,0,0,1-3.4.65l.2-.45h1.2a3.46,3.46,0,0,1,1.9.53A3.83,3.83,0,0,1,124.36,16l1.25,2.25a2.74,2.74,0,0,1,.37,1.42,1.49,1.49,0,0,1-.55,1.13,2.22,2.22,0,0,1-1.47.42,2.88,2.88,0,0,1-1.6-.4,3.48,3.48,0,0,1-1.08-1.25L119,15.37a1.57,1.57,0,0,0-.78-.75,2.32,2.32,0,0,0-1-.23h-1.37v4.48a2.4,2.4,0,0,1-.58,1.72A2.28,2.28,0,0,1,113.51,21.19Zm2.3-10h3a3.31,3.31,0,0,0,2-.52,1.89,1.89,0,0,0,.7-1.63,1.83,1.83,0,0,0-.7-1.57,3.18,3.18,0,0,0-2-.55h-3Zm21.43,10.1a9.5,9.5,0,0,1-4.7-1.12,8.08,8.08,0,0,1-3.15-3.2,9.89,9.89,0,0,1-1.1-4.78,10.52,10.52,0,0,1,.62-3.72,8.25,8.25,0,0,1,1.83-2.88,8,8,0,0,1,2.85-1.82,9.92,9.92,0,0,1,3.65-.65,9.36,9.36,0,0,1,4.67,1.12,7.9,7.9,0,0,1,3.15,3.18,9.67,9.67,0,0,1,1.13,4.77,10.32,10.32,0,0,1-.65,3.73,8.23,8.23,0,0,1-1.83,2.9,7.91,7.91,0,0,1-2.82,1.85A10.17,10.17,0,0,1,137.24,21.24Zm0-3.85a3.91,3.91,0,0,0,2.25-.62,4,4,0,0,0,1.42-1.8,7.27,7.27,0,0,0,.5-2.83,6,6,0,0,0-1.1-3.85,3.73,3.73,0,0,0-3.07-1.37,4,4,0,0,0-2.25.62,3.83,3.83,0,0,0-1.43,1.78,7.15,7.15,0,0,0-.5,2.82,6.15,6.15,0,0,0,1.1,3.88A3.7,3.7,0,0,0,137.24,17.39Zm14,3.58a2.4,2.4,0,0,1-1.73-.6,2.4,2.4,0,0,1-.6-1.73v-13a2.32,2.32,0,0,1,.6-1.72,2.3,2.3,0,0,1,1.7-.6,2.24,2.24,0,0,1,1.7.6,2.32,2.32,0,0,1,.6,1.72v11.5h6.1a2,2,0,0,1,1.45.5,1.81,1.81,0,0,1,.53,1.4,1.88,1.88,0,0,1-.53,1.43,2,2,0,0,1-1.45.5Zm14.62,0a2.37,2.37,0,0,1-1.72-.6,2.4,2.4,0,0,1-.6-1.73v-13a2.32,2.32,0,0,1,.6-1.72,2.29,2.29,0,0,1,1.7-.6,2.26,2.26,0,0,1,1.7.6,2.32,2.32,0,0,1,.6,1.72v11.5h6.1a2,2,0,0,1,1.45.5,1.8,1.8,0,0,1,.52,1.4,1.87,1.87,0,0,1-.52,1.43,2,2,0,0,1-1.45.5Zm14.44.15a2.29,2.29,0,0,1-2.45-2.45,2.36,2.36,0,0,1,.65-1.73,2.43,2.43,0,0,1,1.8-.67,2.27,2.27,0,0,1,2.45,2.4,2.46,2.46,0,0,1-.65,1.77A2.34,2.34,0,0,1,180.29,21.12Zm11.81.12a15.49,15.49,0,0,1-2.1-.15,12,12,0,0,1-2.05-.4A10.16,10.16,0,0,1,186.2,20a2,2,0,0,1-.95-.85,1.91,1.91,0,0,1-.2-1.15,2.12,2.12,0,0,1,.42-1.05,1.66,1.66,0,0,1,.93-.62,1.8,1.8,0,0,1,1.3.15,9.69,9.69,0,0,0,2.15.7,10.83,10.83,0,0,0,2.25.25,4.41,4.41,0,0,0,2.3-.43,1.29,1.29,0,0,0,.67-1.1,1.1,1.1,0,0,0-.47-.92,4.34,4.34,0,0,0-1.63-.6l-2.92-.63A6.6,6.6,0,0,1,186.47,12a4.51,4.51,0,0,1-1.17-3.22,5.17,5.17,0,0,1,.52-2.35,5.4,5.4,0,0,1,1.53-1.83,7.36,7.36,0,0,1,2.35-1.15,10.36,10.36,0,0,1,3.05-.42,11.84,11.84,0,0,1,2.62.3,7.53,7.53,0,0,1,2.33.85,1.76,1.76,0,0,1,.82.82,2,2,0,0,1,.2,1.1,1.68,1.68,0,0,1-.4,1,1.57,1.57,0,0,1-.9.57,2.12,2.12,0,0,1-1.32-.2A7.09,7.09,0,0,0,194.45,7a9,9,0,0,0-1.75-.18,4.88,4.88,0,0,0-1.58.23,2.12,2.12,0,0,0-1,.6,1.45,1.45,0,0,0-.32.92,1.17,1.17,0,0,0,.42.9,4,4,0,0,0,1.63.6l2.9.63a7.17,7.17,0,0,1,3.62,1.72,4.24,4.24,0,0,1,1.2,3.13,5,5,0,0,1-2,4.15,7.32,7.32,0,0,1-2.35,1.12A11,11,0,0,1,192.1,21.24ZM204.23,21a2.51,2.51,0,0,1-1.8-.6,2.47,2.47,0,0,1-.6-1.78V5.72a2.37,2.37,0,0,1,.6-1.75,2.44,2.44,0,0,1,1.8-.63h8.48a1.83,1.83,0,0,1,1.35.45,1.77,1.77,0,0,1,.45,1.3,1.87,1.87,0,0,1-.45,1.35,1.83,1.83,0,0,1-1.35.45h-6.48v3.35h5.93a1.79,1.79,0,0,1,1.32.45A1.75,1.75,0,0,1,214,12a1.72,1.72,0,0,1-.48,1.32,1.79,1.79,0,0,1-1.32.45h-5.93v3.63h6.48a1.8,1.8,0,0,1,1.35.47,1.77,1.77,0,0,1,.45,1.3,1.8,1.8,0,0,1-.45,1.33,1.83,1.83,0,0,1-1.35.45Z"></path>
      <path class="cls-2" d="M0,22.26V4.17H3.65V22.26Z"></path>
      <rect class="cls-3" x="5.84" width="3.65" height="22.26"></rect>
      <rect class="cls-4" x="11.68" y="8.35" width="3.65" height="13.91"></rect>
      <rect class="cls-5" x="17.51" y="4.17" width="3.65" height="18.08"></rect>
      <rect class="cls-6" x="23.35" width="3.65" height="22.26"></rect>
      <rect class="cls-7" y="23.35" width="27" height="1.46"></rect>
    </g>
  </g>
</svg>
